<?xml version="1.0" standalone="no"?>
<!DOCTYPE svg PUBLIC "-//W3C//DTD SVG 20010904//EN"
 "http://www.w3.org/TR/2001/REC-SVG-20010904/DTD/svg10.dtd">
<svg version="1.0" xmlns="http://www.w3.org/2000/svg"
 width="300.000000pt" height="112.000000pt" viewBox="0 0 300.000000 112.000000"
 preserveAspectRatio="xMidYMid meet">

<g transform="translate(0.000000,112.000000) scale(0.100000,-0.100000)"
fill="#000000" stroke="none">
<path d="M162 838 c-17 -17 -17 -529 0 -546 9 -9 136 -12 509 -12 l497 0 106
-85 c102 -82 130 -99 121 -72 -2 6 -6 45 -10 85 l-6 72 101 0 c56 0 110 5 121
10 18 10 19 24 19 270 0 222 -2 261 -16 274 -14 14 -93 16 -723 16 -536 0
-710 -3 -719 -12z m388 -37 c14 -27 13 -41 -4 -41 -12 0 -46 40 -46 55 0 14
41 3 50 -14z m915 -51 c-18 -20 -45 -27 -45 -12 0 15 24 32 44 32 18 0 19 -1
1 -20z m-1037 -26 c26 -18 31 -84 7 -104 -12 -10 -12 -15 5 -33 28 -30 26 -82
-5 -112 -20 -21 -34 -25 -80 -25 l-55 0 0 145 0 145 53 0 c31 0 61 -6 75 -16z
m174 -114 c34 -157 34 -160 3 -160 -19 0 -25 5 -25 23 -1 55 -51 65 -60 12 -4
-24 -11 -31 -34 -33 -21 -3 -27 0 -24 10 3 7 18 73 33 146 28 131 29 133 54
130 24 -3 27 -10 53 -128z m119 55 l28 -70 0 73 c1 70 2 72 26 72 l25 0 0
-145 c0 -135 -1 -145 -19 -145 -14 0 -25 19 -47 78 l-29 77 -3 -77 c-3 -75 -4
-78 -27 -78 l-25 0 0 146 c0 142 0 145 21 142 16 -2 29 -21 50 -73z m317 58
c12 -10 24 -30 28 -45 5 -25 3 -28 -19 -28 -18 0 -27 7 -31 26 -5 20 -12 25
-34 22 l-27 -3 -3 -98 c-2 -83 0 -98 14 -104 24 -9 48 10 52 41 3 21 -1 26
-17 26 -14 0 -21 6 -21 20 0 17 7 20 45 20 l45 0 0 -75 c0 -68 -2 -75 -20 -75
-11 0 -20 5 -20 12 0 9 -3 9 -12 0 -22 -22 -75 -14 -97 14 -18 23 -21 41 -21
119 0 78 3 96 21 119 25 32 85 36 117 9z m102 -43 l0 -60 35 0 35 0 0 60 c0
57 1 60 25 60 l25 0 0 -145 0 -145 -25 0 c-24 0 -25 2 -25 65 l0 65 -35 0 -35
0 0 -65 c0 -63 -1 -65 -25 -65 l-25 0 0 145 0 145 25 0 c24 0 25 -3 25 -60z
m280 40 l25 -20 -25 0 c-15 0 -31 5 -37 11 -8 8 -13 8 -17 0 -4 -6 -19 -11
-34 -11 l-27 0 25 20 c14 11 34 20 45 20 11 0 31 -9 45 -20z m30 -45 c0 -12
-13 -15 -55 -15 l-55 0 0 -35 0 -35 50 0 c38 0 50 -4 50 -15 0 -11 -12 -15
-50 -15 l-50 0 0 -40 0 -40 60 0 c47 0 60 -3 60 -15 0 -12 -16 -15 -80 -15
l-80 0 0 120 0 120 75 0 c60 0 75 -3 75 -15z"/>
<path d="M350 661 c0 -44 12 -51 44 -28 28 20 18 61 -16 65 -27 3 -28 1 -28
-37z"/>
<path d="M350 536 c0 -42 2 -46 25 -46 48 0 45 81 -4 88 -19 3 -21 -1 -21 -42z"/>
<path d="M538 596 c-3 -25 0 -36 9 -36 15 0 17 38 4 59 -6 9 -10 2 -13 -23z"/>
<path d="M1720 585 c0 -138 1 -145 20 -145 18 0 20 7 20 71 l0 70 38 -3 37 -3
3 -67 c2 -52 6 -68 17 -68 13 0 15 25 15 145 0 122 -2 145 -15 145 -12 0 -15
-13 -15 -60 l0 -60 -40 0 -40 0 0 60 c0 53 -2 60 -20 60 -19 0 -20 -7 -20
-145z"/>
<path d="M1939 712 c-19 -16 -23 -31 -27 -103 -7 -132 26 -184 104 -165 40 10
57 64 52 165 -4 72 -8 87 -27 103 -13 10 -36 18 -51 18 -15 0 -38 -8 -51 -18z
m80 -26 c8 -9 11 -47 9 -106 -2 -76 -6 -95 -20 -104 -13 -8 -23 -8 -35 0 -15
9 -19 28 -21 104 -3 96 5 120 38 120 10 0 23 -6 29 -14z"/>
<path d="M2126 603 c-15 -71 -29 -136 -32 -145 -4 -13 0 -18 14 -18 15 0 21 9
26 35 6 30 11 35 36 35 25 0 30 -5 36 -35 5 -26 11 -35 26 -35 14 0 18 5 14
18 -3 9 -17 74 -32 145 -22 102 -30 127 -44 127 -14 0 -22 -25 -44 -127z m58
10 c10 -62 8 -73 -14 -73 -12 0 -20 7 -20 18 0 34 13 92 20 92 4 0 10 -17 14
-37z"/>
<path d="M2350 585 c0 -121 2 -145 15 -145 12 0 15 22 17 113 l3 112 13 -57
c6 -32 17 -83 23 -113 15 -79 33 -71 47 23 22 140 30 148 31 30 1 -101 2 -108
21 -108 19 0 20 7 20 146 l0 145 -27 -3 c-27 -3 -29 -6 -47 -106 -10 -57 -22
-100 -26 -95 -4 4 -15 52 -25 106 -16 91 -18 97 -41 97 l-24 0 0 -145z"/>
<path d="M2626 718 c-7 -20 -56 -257 -56 -268 0 -6 6 -10 14 -10 15 0 26 21
26 51 0 15 7 19 35 19 28 0 35 -4 35 -19 0 -30 11 -51 26 -51 18 0 18 3 -15
155 -21 100 -31 131 -44 133 -9 2 -19 -2 -21 -10z m38 -135 c6 -41 5 -43 -20
-43 -22 0 -25 4 -21 23 3 12 9 40 13 62 8 44 16 32 28 -42z"/>
<path d="M2750 585 c0 -138 1 -145 20 -145 19 0 20 7 20 145 0 138 -1 145 -20
145 -19 0 -20 -7 -20 -145z"/>
</g>
</svg>
